<?xml version="1.0" encoding="UTF-8"?>
<svg version="1.1" xmlns="http://www.w3.org/2000/svg" width="475" height="525">
<path d="M0 0 C1.90369763 -0.00389563 3.80739441 -0.00823206 5.71109009 -0.01298523 C9.68665392 -0.02041318 13.66212889 -0.02018111 17.63769531 -0.01489258 C22.69981053 -0.00910196 27.76155939 -0.02603598 32.82361412 -0.04923725 C36.75131307 -0.0640605 40.67892552 -0.06483468 44.60664749 -0.06172752 C46.47152049 -0.06223641 48.3363989 -0.06739153 50.20124435 -0.07753944 C66.30403193 -0.15442929 81.35952557 0.48194744 93.6640625 12.17578125 C106.47090957 25.72099524 104.50892517 44.05347349 104.484375 61.4140625 C104.48505072 63.12127191 104.48602297 64.82848122 104.48727417 66.53569031 C104.48873654 70.08638438 104.48664276 73.63705305 104.48193359 77.18774414 C104.47621528 81.71756906 104.47953788 86.24733498 104.48550606 90.77715778 C104.48913276 94.2920526 104.48796378 97.80693359 104.48537827 101.32182884 C104.48471596 102.99183344 104.48551279 104.66183934 104.48785782 106.33184242 C104.50420325 121.22733573 104.33519793 133.79682951 94.6015625 146.05078125 C93.8590625 146.79328125 93.1165625 147.53578125 92.3515625 148.30078125 C91.6915625 148.30078125 91.0315625 148.30078125 90.3515625 148.30078125 C90.3515625 148.96078125 90.3515625 149.62078125 90.3515625 150.30078125 C88.59099674 151.27784916 86.81731938 152.23129412 85.0390625 153.17578125 C84.05292969 153.70945312 83.06679688 154.243125 82.05078125 154.79296875 C70.98925752 159.30167853 59.10976631 158.59540265 47.37890625 158.56640625 C45.44560192 158.56775619 43.51229793 158.56969946 41.57899475 158.57220459 C37.54375957 158.57513964 33.50861343 158.57091011 29.47338867 158.56152344 C24.32360984 158.55012224 19.17403938 158.55670297 14.02426815 158.56866837 C10.03750563 158.57592428 6.05079184 158.57358208 2.06402779 158.56841278 C0.1659804 158.56708699 -1.73207154 158.56868609 -3.6301136 158.57337189 C-31.93506192 158.62793799 -31.93506192 158.62793799 -43.3984375 148.98828125 C-44.5121875 147.65796875 -44.5121875 147.65796875 -45.6484375 146.30078125 C-46.38513672 145.42099609 -46.38513672 145.42099609 -47.13671875 144.5234375 C-48.7464295 142.50630616 -50.21525903 140.44661166 -51.6484375 138.30078125 C-52.05578125 137.69105469 -52.463125 137.08132813 -52.8828125 136.453125 C-55.48175674 131.71664328 -56.00550889 126.97671426 -56.24609375 121.66015625 C-56.28503754 120.85650131 -56.32398132 120.05284637 -56.36410522 119.22483826 C-56.90860877 106.17696655 -56.79802814 93.10336966 -56.77880859 80.04663086 C-56.77307718 76.12818882 -56.77642669 72.2098148 -56.78238106 68.29137516 C-56.7860204 65.22758993 -56.78483329 62.16382046 -56.78225327 59.10003471 C-56.78159513 57.6557966 -56.78237255 56.21155697 -56.78473282 54.76732063 C-56.82497058 23.28711803 -56.82497058 23.28711803 -46.6484375 12.30078125 C-32.84341728 -0.01982819 -17.58952275 -0.01507518 0 0 Z M-36.34275818 25.23733521 C-42.63137001 35.17561867 -42.22445547 45.68507544 -42.14453125 56.99609375 C-42.14468654 58.79727232 -42.14618054 60.59845122 -42.14894104 62.39962769 C-42.15031847 66.15670723 -42.1378752 69.91340198 -42.11499023 73.67041016 C-42.08656651 78.46617493 -42.08936293 83.26130337 -42.10208035 88.05711555 C-42.10906079 91.77022664 -42.10122199 95.48319269 -42.08882332 99.19628525 C-42.08433468 100.96397214 -42.08394918 102.73167474 -42.08788872 104.49936295 C-42.10264171 116.93771644 -41.82007535 127.85121498 -32.6484375 137.30078125 C-26.25284289 142.18571665 -19.8298596 142.45104962 -12.05371094 142.46191406 C-10.77219902 142.46936142 -10.77219902 142.46936142 -9.46479797 142.47695923 C-6.64579453 142.49153213 -3.82684738 142.49837503 -1.0078125 142.50390625 C0.95888266 142.50966208 2.9255778 142.51541976 4.89227295 142.5211792 C9.0146104 142.53167559 13.13692842 142.53752704 17.25927734 142.54101562 C22.52595296 142.54649488 27.79236934 142.57051659 33.05896378 142.59898758 C37.12203711 142.61766759 41.18504868 142.62282243 45.24816132 142.6243515 C47.18891567 142.62736688 49.12966922 142.63535749 51.07038116 142.64853668 C53.79353717 142.6657082 56.51606874 142.66368992 59.23925781 142.65722656 C60.03126083 142.66644135 60.82326385 142.67565613 61.63926697 142.68515015 C68.4819968 142.63460915 76.31433743 141.33800632 81.3515625 136.30078125 C81.3515625 135.64078125 81.3515625 134.98078125 81.3515625 134.30078125 C82.0115625 134.30078125 82.6715625 134.30078125 83.3515625 134.30078125 C84.16908553 132.72003561 84.98038247 131.13606902 85.7890625 129.55078125 C86.46775391 128.22820312 86.46775391 128.22820312 87.16015625 126.87890625 C89.36465752 122.10851006 89.50469452 117.7754212 89.51269531 112.56982422 C89.51766022 111.79526382 89.52262512 111.02070343 89.52774048 110.22267151 C89.54233119 107.66276148 89.54916048 105.10291352 89.5546875 102.54296875 C89.5604434 100.75660196 89.56620108 98.97023518 89.57196045 97.18386841 C89.58246298 93.43637811 89.58830991 89.6889092 89.59179688 85.94140625 C89.5972668 81.16018268 89.62126575 76.37924601 89.64976883 71.59811211 C89.66847998 67.90558066 89.6736054 64.21311698 89.67513275 60.52054214 C89.6781429 58.75924239 89.68611553 56.99794336 89.69931793 55.23669052 C89.90282489 38.21655557 89.90282489 38.21655557 82.3515625 23.30078125 C76.0739049 17.07514844 70.68753475 16.00127515 62.19018555 16.01025391 C61.27571655 16.00353668 60.36124756 15.99681946 59.41906738 15.98989868 C56.40041649 15.9709243 53.38198804 15.96699466 50.36328125 15.96484375 C48.25966806 15.95841509 46.15605577 15.95168668 44.05244446 15.94467163 C39.64342171 15.93270001 35.23447731 15.92899066 30.82543945 15.93017578 C25.18639779 15.93037888 19.5478606 15.90308525 13.90893841 15.86863136 C9.56366181 15.84635079 5.21850635 15.84233861 0.87317848 15.84339523 C-1.20516891 15.8410407 -3.28351972 15.83222554 -5.36181068 15.8167305 C-8.27452126 15.79704887 -11.18614746 15.80291746 -14.09887695 15.81494141 C-14.95057968 15.80370239 -15.80228241 15.79246338 -16.67979431 15.78088379 C-24.84901479 15.86621566 -31.29194011 18.68373135 -36.34275818 25.23733521 Z " fill="#747E85" transform="translate(213.6484375,182.69921875)"/>
<path d="M0 0 C3 2 3 2 4 5 C6.1046665 36.27024203 1.31930871 66.26345026 -19 91 C-19.50660156 91.62261719 -20.01320313 92.24523437 -20.53515625 92.88671875 C-36.18846033 111.34240464 -56.33970524 122.64300407 -80.59375 124.76806641 C-87.61592026 125.24621017 -94.65253554 125.38200295 -101.6875 125.5625 C-103.27539933 125.60580192 -104.86329008 125.64941943 -106.45117188 125.69335938 C-110.30069221 125.79920689 -114.15030289 125.90079909 -118 126 C-116.76921426 129.0411417 -116.76921426 129.0411417 -114.1875 130.8125 C-110.7493471 132.67892586 -108.76414325 135.54646533 -107 139 C-106.92145116 142.37760017 -107.70870635 143.60081981 -109.6875 146.3125 C-112.72630228 148.53000437 -114.29361686 148.40875849 -118 148 C-120.421875 146.3828125 -120.421875 146.3828125 -122.75 144.125 C-124.03390625 142.89910156 -124.03390625 142.89910156 -125.34375 141.6484375 C-132.48697441 134.52622258 -132.48697441 134.52622258 -135.734375 131.22265625 C-137.59222365 129.40004266 -139.44682135 127.77721842 -141.5 126.1875 C-144.20994533 123.81629784 -145.23177598 122.4996872 -146 119 C-145.66328657 113.87213502 -144.2554304 111.63476106 -140.5625 108.125 C-139.35787109 106.95324219 -139.35787109 106.95324219 -138.12890625 105.7578125 C-136 104 -136 104 -134 104 C-134 103.34 -134 102.68 -134 102 C-133.34 102 -132.68 102 -132 102 C-131.773125 101.443125 -131.54625 100.88625 -131.3125 100.3125 C-129.62449964 97.33840412 -127.53323483 95.27991135 -125 93 C-124.34 93 -123.68 93 -123 93 C-122.34 91.68 -121.68 90.36 -121 89 C-120.34 89 -119.68 89 -119 89 C-119 88.34 -119 87.68 -119 87 C-113.375 85.875 -113.375 85.875 -110 87 C-107.61028528 89.90179645 -107.01489649 91.59779467 -106.875 95.375 C-108.20437937 99.65855576 -110.02615957 101.48892755 -113.30859375 104.421875 C-115.22551283 106.08915363 -115.22551283 106.08915363 -117 109 C-112.16607404 109.10057784 -107.33278652 109.17225269 -102.49804688 109.21972656 C-100.86121993 109.23956301 -99.22446105 109.26664112 -97.58789062 109.30175781 C-76.24730091 109.7474458 -56.70570241 104.9656061 -40.26171875 90.609375 C-32.47049409 83.09007472 -26.79379299 74.86556955 -21.8125 65.3125 C-21.4913623 64.71421387 -21.17022461 64.11592773 -20.83935547 63.49951172 C-13.91539396 49.67663662 -13.31584915 35.47636622 -13.01196289 20.36132812 C-12.95656364 17.92471234 -12.8722172 15.49034646 -12.78515625 13.0546875 C-12.77976334 12.31821991 -12.77437042 11.58175232 -12.76881409 10.82296753 C-12.61846109 6.9340517 -12.09790648 5.1254578 -9.67749023 2.02392578 C-6.21586746 -0.59272898 -4.24565859 -0.55036315 0 0 Z " fill="#737D85" transform="translate(366,261)"/>
<path d="M0 0 C4.26168913 1.15405033 7.39547923 4.29258712 10.20703125 7.59765625 C10.20703125 8.25765625 10.20703125 8.91765625 10.20703125 9.59765625 C10.86703125 9.59765625 11.52703125 9.59765625 12.20703125 9.59765625 C12.20703125 10.25765625 12.20703125 10.91765625 12.20703125 11.59765625 C12.80032227 11.87077637 13.39361328 12.14389648 14.00488281 12.42529297 C17.51432952 14.29362591 20.11578084 16.97507343 22.95703125 19.72265625 C23.55902344 20.26664063 24.16101563 20.810625 24.78125 21.37109375 C25.63396484 22.19867188 25.63396484 22.19867188 26.50390625 23.04296875 C27.02307617 23.53297363 27.54224609 24.02297852 28.07714844 24.52783203 C29.86921524 27.81070635 29.91545244 31.0101003 29.20703125 34.59765625 C27.14331055 37.56958008 27.14331055 37.56958008 24.28125 40.3046875 C23.52615898 41.04279915 23.52615898 41.04279915 22.7558136 41.79582214 C21.1532826 43.35385087 19.52524684 44.8817071 17.89453125 46.41015625 C16.81002511 47.4544895 15.72732199 48.50069857 14.64648438 49.54882812 C12.66127137 51.4689013 10.66514844 53.37426325 8.65893555 55.27270508 C7.2499923 56.60869697 5.8542826 57.95968378 4.49926758 59.3503418 C2.40207384 61.37463101 1.21828023 61.59693823 -1.73046875 61.78515625 C-4.79296875 61.59765625 -4.79296875 61.59765625 -7.79296875 59.59765625 C-8.33984375 57.7578125 -8.33984375 57.7578125 -8.54296875 55.66015625 C-8.65898437 54.62568359 -8.65898437 54.62568359 -8.77734375 53.5703125 C-8.79296875 51.59765625 -8.79296875 51.59765625 -7.79296875 48.59765625 C-7.13296875 48.59765625 -6.47296875 48.59765625 -5.79296875 48.59765625 C-5.79296875 47.93765625 -5.79296875 47.27765625 -5.79296875 46.59765625 C-5.13296875 46.59765625 -4.47296875 46.59765625 -3.79296875 46.59765625 C-3.52484375 45.99953125 -3.25671875 45.40140625 -2.98046875 44.78515625 C-1.80210567 42.61448742 -0.56235894 41.28948413 1.20703125 39.59765625 C-3.73269048 39.49686143 -8.67178135 39.42530716 -13.61230469 39.37792969 C-15.28396052 39.35812788 -16.95555022 39.33107888 -18.62695312 39.29589844 C-34.94875171 38.96159654 -53.34475343 40.29912562 -67.23046875 49.84765625 C-69.79296875 51.59765625 -69.79296875 51.59765625 -72.79296875 51.59765625 C-72.79296875 52.25765625 -72.79296875 52.91765625 -72.79296875 53.59765625 C-76.25450721 56.59765625 -76.25450721 56.59765625 -78.79296875 56.59765625 C-79.05078125 57.17 -79.30859375 57.74234375 -79.57421875 58.33203125 C-80.90662817 60.8089462 -82.44352993 62.73177285 -84.29296875 64.84765625 C-85.205625 65.90726563 -85.205625 65.90726563 -86.13671875 66.98828125 C-87.79296875 68.59765625 -87.79296875 68.59765625 -89.79296875 68.59765625 C-90.06367188 69.32726562 -90.334375 70.056875 -90.61328125 70.80859375 C-91.75408438 73.50572432 -93.08277628 75.76683994 -94.66796875 78.22265625 C-102.9478287 91.83393822 -104.08853174 105.81847439 -104.27148438 121.40429688 C-104.29791016 122.51611328 -104.32433594 123.62792969 -104.3515625 124.7734375 C-104.36501709 125.77286377 -104.37847168 126.77229004 -104.39233398 127.80200195 C-104.85810081 131.05215183 -105.85961289 132.96348095 -107.79296875 135.59765625 C-109.9140625 136.41015625 -109.9140625 136.41015625 -112.23046875 136.59765625 C-112.99230469 136.68015625 -113.75414063 136.76265625 -114.5390625 136.84765625 C-117.52288535 136.51669496 -118.65916534 135.70444949 -120.79296875 133.59765625 C-121.29467773 130.83300781 -121.29467773 130.83300781 -121.2890625 127.48828125 C-121.29204346 126.26560547 -121.29502441 125.04292969 -121.2980957 123.78320312 C-121.26462036 121.83510742 -121.26462036 121.83510742 -121.23046875 119.84765625 C-121.21653076 118.52830078 -121.20259277 117.20894531 -121.18823242 115.84960938 C-120.8547447 98.2518857 -117.00084286 82.7612617 -107.79296875 67.59765625 C-107.13296875 67.59765625 -106.47296875 67.59765625 -105.79296875 67.59765625 C-105.68855469 67.035625 -105.58414063 66.47359375 -105.4765625 65.89453125 C-104.6668364 63.17385154 -103.43093537 61.20507818 -101.85546875 58.84765625 C-101.33082031 58.0484375 -100.80617188 57.24921875 -100.265625 56.42578125 C-99.77964844 55.8225 -99.29367188 55.21921875 -98.79296875 54.59765625 C-98.13296875 54.59765625 -97.47296875 54.59765625 -96.79296875 54.59765625 C-96.79296875 53.93765625 -96.79296875 53.27765625 -96.79296875 52.59765625 C-96.13296875 52.59765625 -95.47296875 52.59765625 -94.79296875 52.59765625 C-94.79296875 51.93765625 -94.79296875 51.27765625 -94.79296875 50.59765625 C-94.13296875 50.59765625 -93.47296875 50.59765625 -92.79296875 50.59765625 C-92.79296875 49.93765625 -92.79296875 49.27765625 -92.79296875 48.59765625 C-92.13296875 48.59765625 -91.47296875 48.59765625 -90.79296875 48.59765625 C-90.79296875 47.93765625 -90.79296875 47.27765625 -90.79296875 46.59765625 C-69.61869325 27.2681093 -44.06170208 23.67929847 -16.60546875 23.03515625 C-14.87303861 22.99186576 -13.14061661 22.94824851 -11.40820312 22.90429688 C-7.20320924 22.79831754 -2.99813018 22.69675492 1.20703125 22.59765625 C0.56894531 21.89898437 -0.06914062 21.2003125 -0.7265625 20.48046875 C-1.55285156 19.57039063 -2.37914062 18.6603125 -3.23046875 17.72265625 C-4.05417969 16.81773437 -4.87789063 15.9128125 -5.7265625 14.98046875 C-8.09537886 12.24894138 -8.73093873 11.31100151 -9.04296875 7.72265625 C-8.79296875 4.59765625 -8.79296875 4.59765625 -7.79296875 2.22265625 C-5.28412765 0.18422285 -3.20659895 -0.13683075 0 0 Z " fill="#737D84" transform="translate(226.79296875,115.40234375)"/>
<path d="M0 0 C0 0.66 0 1.32 0 2 C0.66 2 1.32 2 2 2 C2 2.66 2 3.32 2 4 C2.66 4 3.32 4 4 4 C4 4.66 4 5.32 4 6 C4.66 6 5.32 6 6 6 C14.71218982 18.27957674 17.76489411 29.62623793 15.4375 44.625 C11.89173055 52.94985002 7.38406573 61.46682146 0 67 C-0.66 67 -1.32 67 -2 67 C-2 67.66 -2 68.32 -2 69 C-3.34855767 69.80118392 -4.70421743 70.59041608 -6.0625 71.375 C-6.81660156 71.81585938 -7.57070313 72.25671875 -8.34765625 72.7109375 C-17.69080883 77.25179222 -29.26749343 77.45844697 -39.3359375 75.27734375 C-44.82105288 73.37983185 -50.52881079 70.76656054 -55 67 C-55 66.34 -55 65.68 -55 65 C-56.32 64.34 -57.64 63.68 -59 63 C-59 62.34 -59 61.68 -59 61 C-59.66 61 -60.32 61 -61 61 C-69.31000681 50.5031493 -71.67015409 41.35153148 -71 28 C-70.27478228 21.96875897 -68.64747714 17.93482201 -65 13 C-63.62016864 10.69089445 -62.31451615 8.34735026 -61 6 C-60.34 6 -59.68 6 -59 6 C-59 5.34 -59 4.68 -59 4 C-58.34 4 -57.68 4 -57 4 C-57 3.34 -57 2.68 -57 2 C-51.00049181 -3.29743808 -44.73111277 -6.23676376 -37 -8 C-36.34902344 -8.18304688 -35.69804687 -8.36609375 -35.02734375 -8.5546875 C-22.23991274 -11.36348737 -10.76090655 -6.43156697 0 0 Z M-50 17 C-54.4049977 23.05535496 -55.5285023 30.02394759 -54.74609375 37.390625 C-53.01126407 46.58053359 -48.54391791 52.64312618 -41 58 C-35.08006533 61.42605626 -28.7022209 61.84708625 -22 61 C-16.3450995 59.43365682 -11.20093322 57.20093322 -7 53 C-7 52.34 -7 51.68 -7 51 C-6.34 51 -5.68 51 -5 51 C-0.0725011 42.89346955 1.29513568 34.05748121 -0.9375 24.75 C-3.38359916 17.89198683 -8.46146638 12.3076941 -14.625 8.5 C-27.98996676 2.56001477 -40.54917663 6.48856319 -50 17 Z " fill="#757E85" transform="translate(265,229)"/>
<path d="M0 0 C2.80329808 0.0567962 4.58184236 0.11227215 6.95703125 1.6328125 C9.24818556 4.15506307 10.15632532 6.27732369 10.625 9.625 C10.19986223 12.41876249 9.76649473 14.1730604 8.1875 16.5 C3.94443718 19.32870855 0.16788101 19.14500016 -4.8125 18.5 C-8.273175 16.38983232 -8.68512936 14.96702569 -9.75 11.0625 C-9.81985492 7.08076972 -9.20956001 5.60730001 -6.8125 2.5 C-4.35192818 0.03942818 -3.40528095 0.12252885 0 0 Z " fill="#767F86" transform="translate(280.8125,210.5)"/>
<path d="M0 0 C3.7952131 1.49097658 5.61042731 3.75700849 8 7 C6.62308038 9.75383923 4.63279958 10.51483101 2 12 C1.67 11.34 1.34 10.68 1 10 C-2.42559084 11.20358597 -4.53258609 12.35892646 -7 15 C-7.40992188 14.51789063 -7.81984375 14.03578125 -8.2421875 13.5390625 C-8.78101563 12.90742188 -9.31984375 12.27578125 -9.875 11.625 C-10.40867187 10.99851563 -10.94234375 10.37203125 -11.4921875 9.7265625 C-12.61432007 8.44163349 -13.79371975 7.20628025 -15 6 C-12.69 6 -10.38 6 -8 6 C-8 6.66 -8 7.32 -8 8 C-7.236875 7.649375 -6.47375 7.29875 -5.6875 6.9375 C-3 6 -3 6 0 7 C0.93423645 3.98968256 1.04449911 3.13349732 0 0 Z " fill="#7C838A" transform="translate(305,195)"/>
<path d="M0 0 C-0.99 0.495 -0.99 0.495 -2 1 C-2 1.66 -2 2.32 -2 3 C-1.34 3.33 -0.68 3.66 0 4 C-6.625 7.125 -6.625 7.125 -10 6 C-12.80814185 6.80232624 -15.38791536 7.69395768 -18 9 C-18 8.34 -18 7.68 -18 7 C-18.66 6.67 -19.32 6.34 -20 6 C-18.44148245 5.17988688 -16.87798284 4.36923787 -15.3125 3.5625 C-14.44238281 3.11003906 -13.57226562 2.65757812 -12.67578125 2.19140625 C-8.42516625 0.29879665 -4.62017299 -0.13200494 0 0 Z " fill="#838A90" transform="translate(193,184)"/>
<path d="M0 0 C0.99 0.33 1.98 0.66 3 1 C2.38801624 4.43950364 1.07941153 6.51564485 -1.0625 9.25 C-1.61035156 9.95640625 -2.15820312 10.6628125 -2.72265625 11.390625 C-3.14417969 11.92171875 -3.56570313 12.4528125 -4 13 C-4.33 12.01 -4.66 11.02 -5 10 C-5.66 10 -6.32 10 -7 10 C-7 9.34 -7 8.68 -7 8 C-6.34 8 -5.68 8 -5 8 C-5 7.34 -5 6.68 -5 6 C-4.360625 5.7525 -3.72125 5.505 -3.0625 5.25 C-0.81258459 4.18437567 -0.81258459 4.18437567 -0.25 1.875 C-0.1675 1.25625 -0.085 0.6375 0 0 Z " fill="#82888D" transform="translate(273,279)"/>
<path d="M0 0 C1.63001953 0.01353516 1.63001953 0.01353516 3.29296875 0.02734375 C4.12441406 0.03894531 4.95585937 0.05054688 5.8125 0.0625 C3.39842302 1.67188465 1.47205563 2.71740738 -1.1875 3.75 C-2.2084375 4.15798828 -2.2084375 4.15798828 -3.25 4.57421875 C-5.1875 5.0625 -5.1875 5.0625 -8.1875 4.0625 C-8.5175 3.0725 -8.8475 2.0825 -9.1875 1.0625 C-5.90230525 -0.03256492 -3.45086585 -0.03710608 0 0 Z " fill="#8D9297" transform="translate(307.1875,377.9375)"/>
<path d="M0 0 C1.14926266 0.95421808 2.29430541 1.91352045 3.4375 2.875 C4.07558594 3.40867187 4.71367187 3.94234375 5.37109375 4.4921875 C7 6 7 6 8 8 C6.02 8.66 4.04 9.32 2 10 C1.71125 9.21625 1.4225 8.4325 1.125 7.625 C0.15087746 4.90328368 0.15087746 4.90328368 -2 3 C-1.34 3 -0.68 3 0 3 C0 2.01 0 1.02 0 0 Z " fill="#848A8E" transform="translate(176,314)"/>
<path d="M0 0 C3 0.9375 3 0.9375 4.875 3.1875 C6.03680686 6.02747232 6.25991562 7.90515104 6 10.9375 C5.34 10.9375 4.68 10.9375 4 10.9375 C3.67 8.6275 3.34 6.3175 3 3.9375 C-1.455 2.9475 -1.455 2.9475 -6 1.9375 C-3 -0.0625 -3 -0.0625 0 0 Z " fill="#9DA0A4" transform="translate(253,347.0625)"/>
<path d="M0 0 C0.33 0 0.66 0 1 0 C0.67 2.31 0.34 4.62 0 7 C-0.66 7 -1.32 7 -2 7 C-2.33 7.66 -2.66 8.32 -3 9 C-4.32 8.34 -5.64 7.68 -7 7 C-4.66666667 4.66666667 -2.33333333 2.33333333 0 0 Z " fill="#83898E" transform="translate(172,191)"/>
<path d="M0 0 C1.90845703 0.17982422 1.90845703 0.17982422 3.85546875 0.36328125 C4.83128906 0.47027344 5.80710938 0.57726562 6.8125 0.6875 C6.8125 1.0175 6.8125 1.3475 6.8125 1.6875 C6.05324219 1.72488281 5.29398438 1.76226562 4.51171875 1.80078125 C3.51785156 1.86652344 2.52398437 1.93226563 1.5 2 C0.51386719 2.05800781 -0.47226563 2.11601562 -1.48828125 2.17578125 C-4.43134457 2.73372813 -5.36932999 3.37290132 -7.1875 5.6875 C-8.1775 4.6975 -9.1675 3.7075 -10.1875 2.6875 C-7.437571 -1.28916313 -4.46891372 -0.45099129 0 0 Z " fill="#687076" transform="translate(236.1875,290.3125)"/>
<path d="M0 0 C0.33 0.66 0.66 1.32 1 2 C-0.8125 4.5 -0.8125 4.5 -3 7 C-3.99 7 -4.98 7 -6 7 C-6.33 8.32 -6.66 9.64 -7 11 C-8.32 11.33 -9.64 11.66 -11 12 C-11 11.34 -11 10.68 -11 10 C-10.34 10 -9.68 10 -9 10 C-9 9.34 -9 8.68 -9 8 C-8.34 8 -7.68 8 -7 8 C-7 7.34 -7 6.68 -7 6 C-6.34 6 -5.68 6 -5 6 C-5 5.34 -5 4.68 -5 4 C-4.34 4 -3.68 4 -3 4 C-3 3.34 -3 2.68 -3 2 C-2.01 1.34 -1.02 0.68 0 0 Z " fill="#8F939A" transform="translate(139,160)"/>
<path d="M0 0 C1.32 0.66 2.64 1.32 4 2 C4 3.32 4 4.64 4 6 C2.02 6 0.04 6 -2 6 C-2 5.34 -2 4.68 -2 4 C-2.66 3.67 -3.32 3.34 -4 3 C-2.68 2.01 -1.36 1.02 0 0 Z " fill="#6E787F" transform="translate(211,241)"/>
<path d="M0 0 C-2.64 2.64 -5.28 5.28 -8 8 C-9 5 -9 5 -8 2 C-3.63934426 -1.21311475 -3.63934426 -1.21311475 0 0 Z " fill="#888E93" transform="translate(243,163)"/>
<path d="M0 0 C0.33 0.99 0.66 1.98 1 3 C1.99 2.67 2.98 2.34 4 2 C4.66 3.32 5.32 4.64 6 6 C0.46153846 6.36923077 0.46153846 6.36923077 -1.875 4.5 C-2.24625 4.005 -2.6175 3.51 -3 3 C-2.01 2.01 -1.02 1.02 0 0 Z " fill="#7F868D" transform="translate(222,171)"/>
<path d="M0 0 C2 1 2 1 3 3 C2.67 3.66 2.34 4.32 2 5 C0.68 4.67 -0.64 4.34 -2 4 C-2 4.66 -2 5.32 -2 6 C-3.32 5.34 -4.64 4.68 -6 4 C-4.02 2.68 -2.04 1.36 0 0 Z " fill="#888E94" transform="translate(317,358)"/>
<path d="M0 0 C1.65 0.33 3.3 0.66 5 1 C5 1.99 5 2.98 5 4 C3.35 4.66 1.7 5.32 0 6 C0 4 0 2 0 0 Z " fill="#808A8F" transform="translate(299,329)"/>
<path d="M0 0 C0.33 0.99 0.66 1.98 1 3 C0.01 3.33 -0.98 3.66 -2 4 C-2.35412344 5.32796291 -2.68521554 6.66216607 -3 8 C-4.5625 9.75 -4.5625 9.75 -6 11 C-5.62671065 5.64951939 -4.0042343 3.49087093 0 0 Z " fill="#898C92" transform="translate(226,369)"/>
<path d="M0 0 C2 0 2 0 3.5625 1.3125 C5 3 5 3 6 6 C6.66 6.33 7.32 6.66 8 7 C7.34 7.66 6.68 8.32 6 9 C4.99406757 7.8803014 3.9954151 6.7540588 3 5.625 C2.443125 4.99851563 1.88625 4.37203125 1.3125 3.7265625 C0 2 0 2 0 0 Z " fill="#8F9498" transform="translate(222,129)"/>
<path d="M0 0 C2.31 0.66 4.62 1.32 7 2 C4 4 4 4 2 4 C1.67 4.66 1.34 5.32 1 6 C0.34 5.34 -0.32 4.68 -1 4 C-0.625 1.875 -0.625 1.875 0 0 Z " fill="#858B91" transform="translate(225,287)"/>
<path d="M0 0 C0.66 0 1.32 0 2 0 C2.185625 0.9590625 2.185625 0.9590625 2.375 1.9375 C2.684375 2.9584375 2.684375 2.9584375 3 4 C3.66 4.33 4.32 4.66 5 5 C4.67 6.32 4.34 7.64 4 9 C3.34 9 2.68 9 2 9 C0.14223235 5.86501708 -0.20140476 3.62528568 0 0 Z " fill="#91999C" transform="translate(271,218)"/>
<path d="M0 0 C-2.52480693 2.52480693 -4.13823034 2.55738633 -7.625 3.125 C-8.62789062 3.29257813 -9.63078125 3.46015625 -10.6640625 3.6328125 C-11.43492187 3.75398437 -12.20578125 3.87515625 -13 4 C-12 2 -12 2 -9.875 0.875 C-6.47608911 -0.15945114 -3.53359114 -0.1385722 0 0 Z " fill="#909297" transform="translate(230,222)"/>
<path d="M0 0 C2 1 4 2 6 3 C6 3.66 6 4.32 6 5 C6.66 5 7.32 5 8 5 C7.67 5.66 7.34 6.32 7 7 C6.34 7 5.68 7 5 7 C4.67 6.34 4.34 5.68 4 5 C3.01 5.495 3.01 5.495 2 6 C1.34 4.02 0.68 2.04 0 0 Z " fill="#8C9095" transform="translate(231,120)"/>
<path d="M0 0 C0.33 1.32 0.66 2.64 1 4 C-0.98 5.32 -2.96 6.64 -5 8 C-5.66 7.67 -6.32 7.34 -7 7 C-5.68 6.34 -4.36 5.68 -3 5 C-3 4.34 -3 3.68 -3 3 C-2.34 3 -1.68 3 -1 3 C-0.67 2.01 -0.34 1.02 0 0 Z " fill="#9A9DA3" transform="translate(298,314)"/>
<path d="M0 0 C0.66 1.32 1.32 2.64 2 4 C2.66 3.67 3.32 3.34 4 3 C2.7191375 6.64553172 1.83328987 8.16671013 -1 11 C-0.67 7.37 -0.34 3.74 0 0 Z " fill="#9B9EA5" transform="translate(107,214)"/>
<path d="M0 0 C-0.33 1.98 -0.66 3.96 -1 6 C-1.66 6 -2.32 6 -3 6 C-3.66 4.35 -4.32 2.7 -5 1 C-2 0 -2 0 0 0 Z " fill="#7D838A" transform="translate(360,329)"/>
<path d="M0 0 C1.98 0.99 1.98 0.99 4 2 C3.67 3.98 3.34 5.96 3 8 C2.34 8 1.68 8 1 8 C0.67 5.36 0.34 2.72 0 0 Z " fill="#6B7478" transform="translate(172,311)"/>
<path d="M0 0 C0.66 0 1.32 0 2 0 C1.67 2.64 1.34 5.28 1 8 C0.01 8.33 -0.98 8.66 -2 9 C-1.34 6.03 -0.68 3.06 0 0 Z " fill="#878D92" transform="translate(302,303)"/>
<path d="M0 0 C1.32 0 2.64 0 4 0 C3.46930939 3.82097239 2.50298434 6.06171403 0 9 C0 6.03 0 3.06 0 0 Z " fill="#6A7176" transform="translate(355,266)"/>
<path d="M0 0 C0.33 0.66 0.66 1.32 1 2 C1.66 2 2.32 2 3 2 C3.66 3.32 4.32 4.64 5 6 C0.25 5.25 0.25 5.25 -2 3 C-1.34 2.01 -0.68 1.02 0 0 Z " fill="#909497" transform="translate(268,233)"/>
<path d="M0 0 C0.99 0.33 1.98 0.66 3 1 C2.34 2.65 1.68 4.3 1 6 C0.01 6 -0.98 6 -2 6 C-1.34 4.02 -0.68 2.04 0 0 Z " fill="#7E8488" transform="translate(116,188)"/>
<path d="M0 0 C-2.35277269 2.72426311 -4.62496331 3.8141763 -8 5 C-8 3.68 -8 2.36 -8 1 C-5.29120665 -0.35439668 -2.99066732 -0.06501451 0 0 Z " fill="#93969C" transform="translate(163,162)"/>
<path d="M0 0 C0.99 0.33 1.98 0.66 3 1 C3 1.66 3 2.32 3 3 C-0.28696233 3.79953138 -1.71023192 4.09658936 -5 3 C-5 2.34 -5 1.68 -5 1 C-2.525 1.495 -2.525 1.495 0 2 C0 1.34 0 0.68 0 0 Z " fill="#6C757D" transform="translate(315,362)"/>
<path d="M0 0 C0.66 0.99 1.32 1.98 2 3 C-0.375 4.5625 -0.375 4.5625 -3 6 C-3.66 5.67 -4.32 5.34 -5 5 C-3.35 3.35 -1.7 1.7 0 0 Z M2 1 C4 2 4 2 4 2 Z " fill="#8C9298" transform="translate(329,348)"/>
<path d="M0 0 C0.66 0 1.32 0 2 0 C2 0.66 2 1.32 2 2 C3.65 2.33 5.3 2.66 7 3 C7.33 4.32 7.66 5.64 8 7 C1.125 3.375 1.125 3.375 0 0 Z " fill="#95979D" transform="translate(168,328)"/>
<path d="M0 0 C0.33 0.66 0.66 1.32 1 2 C1.66 2.33 2.32 2.66 3 3 C1.68 4.32 0.36 5.64 -1 7 C-1.33 5.35 -1.66 3.7 -2 2 C-1.34 2 -0.68 2 0 2 C0 1.34 0 0.68 0 0 Z " fill="#878F93" transform="translate(309,320)"/>
<path d="M0 0 C1.27351308 2.54702616 0.80191925 3.4282945 0.0625 6.125 C-0.13214844 6.84945313 -0.32679688 7.57390625 -0.52734375 8.3203125 C-0.68332031 8.87460937 -0.83929688 9.42890625 -1 10 C-1.33 10 -1.66 10 -2 10 C-2.33 7.03 -2.66 4.06 -3 1 C-2.01 0.67 -1.02 0.34 0 0 Z " fill="#A5A9AD" transform="translate(212,250)"/>
<path d="M0 0 C0.66 0 1.32 0 2 0 C1.6875 1.875 1.6875 1.875 1 4 C0.01 4.66 -0.98 5.32 -2 6 C-2.99 5.67 -3.98 5.34 -5 5 C-4.34 5 -3.68 5 -3 5 C-3.33 4.01 -3.66 3.02 -4 2 C-2.68 2 -1.36 2 0 2 C0 1.34 0 0.68 0 0 Z " fill="#989BA2" transform="translate(288,223)"/>
<path d="M0 0 C2.64 0 5.28 0 8 0 C8 0.99 8 1.98 8 3 C6.35 3 4.7 3 3 3 C3 2.34 3 1.68 3 1 C2.01 0.67 1.02 0.34 0 0 Z " fill="#8D9498" transform="translate(221,116)"/>
<path d="M0 0 C0.66 0.33 1.32 0.66 2 1 C1.67 2.32 1.34 3.64 1 5 C-0.32 5.33 -1.64 5.66 -3 6 C-3 4.68 -3 3.36 -3 2 C-2.01 1.34 -1.02 0.68 0 0 Z " fill="#6C737A" transform="translate(294,320)"/>
<path d="M0 0 C0.99 0.33 1.98 0.66 3 1 C2.34 2.65 1.68 4.3 1 6 C-0.32 5.67 -1.64 5.34 -3 5 C-2.34 4.67 -1.68 4.34 -1 4 C-0.34786708 1.97536745 -0.34786708 1.97536745 0 0 Z " fill="#6B747B" transform="translate(166,145)"/>
<path d="M0 0 C1.98 0 3.96 0 6 0 C6 0.99 6 1.98 6 3 C4.33333333 3 2.66666667 3 1 3 C0.67 2.01 0.34 1.02 0 0 Z " fill="#6A757D" transform="translate(225,140)"/>
</svg>
